<svg xmlns="http://www.w3.org/2000/svg" width="195" height="45.001" viewBox="0 0 195 45.001">
  <g id="Group_79" data-name="Group 79" transform="translate(-33 -40)">
    <path id="Path_43" data-name="Path 43" d="M64.771,80.379H47.8q-4.234,0-3.112-4.087l3.4-12.251A5.1,5.1,0,0,1,53.456,60H70.429l-1.122,4.087H52.371L48.958,76.3H61.65l1.16-4.087H56.464L57.6,68.128H68.166Z" transform="translate(7.41 -7.667)" fill="#232228"/>
    <path id="Path_44" data-name="Path 44" d="M60.83,59.96H71.354l-1.122,4.078h-9.4V59.96Z" transform="translate(6.476 -7.663)" fill="#232228" fill-rule="evenodd"/>
    <path id="Path_45" data-name="Path 45" d="M127.531,68.124l1.169-4.087H115.96l-1.122,4.087ZM113.707,72.21l-1.16,4.087h12.693l1.16-4.087Zm18.049-4.087a2.538,2.538,0,0,1-2.678,2.039q2.112,0,1.556,2.039l-1.16,4.087a5.06,5.06,0,0,1-5.356,4.087H107.2l5.658-20.425h16.927q4.234,0,3.112,4.087l-1.122,4.087Z" transform="translate(3.832 -7.662)" fill="#232228"/>
    <path id="Path_46" data-name="Path 46" d="M144,59.96l-5.648,20.416H134.12l5.658-20.416Z" transform="translate(2.297 -7.663)" fill="#232228"/>
    <path id="Path_47" data-name="Path 47" d="M149.022,59.96h21.161l-1.122,4.078h-8.468l-4.526,16.338h-4.234l4.526-16.338H147.9l1.122-4.078Z" transform="translate(1.511 -7.663)" fill="#232228"/>
    <path id="Path_48" data-name="Path 48" d="M196.828,60l-1.122,4.087H174.545L175.658,60Zm-2.244,8.192-1.132,4.087H172.3l1.132-4.087ZM192.3,76.384l-1.122,4.087H170l1.122-4.087Z" transform="translate(0.251 -7.667)" fill="#232228"/>
    <path id="Path_49" data-name="Path 49" d="M207.718,70.163l-5.12-10.2h5.29l3.4,6.827,7.176-6.827h5.281l-10.741,10.2L218.1,80.376h-5.29l-3.4-6.826-7.176,6.826h-5.29l10.778-10.212Z" transform="translate(-1.285 -7.663)" fill="#232228"/>
    <path id="Path_50" data-name="Path 50" d="M139.54,95.358l1.32-4.76H144.8q.943,0,.726.91l-.839,2.9a1.182,1.182,0,0,1-1.245.91Zm1.245-.91h2.961l.792-2.858h-2.961Zm6.733-2.894-.792,2.858h2.952l.792-2.858Zm.264-.91h2.961q.943,0,.726.91l-.792,2.858a1.182,1.182,0,0,1-1.245.91H146.48q-.943,0-.726-.91l.792-2.858a1.182,1.182,0,0,1,1.245-.91Zm5.658.91-.792,2.858h2.961l.792-2.858Zm.264-.91h2.952q.943,0,.726.91l-.792,2.858a1.182,1.182,0,0,1-1.245.91h-2.961q-.943,0-.726-.91l.792-2.858a1.182,1.182,0,0,1,1.245-.91Zm5.658.91-.264.91h2.961l.264-.91Zm.1,1.9-.462-.61-.7,2.512h-.943l1.32-4.76h3.942q.943,0,.726.91l-.264.91a1.172,1.172,0,0,1-1.235.91h-1l1.443,1.9h-1.339l-1.443-1.9Zm9.741-1.9h-3.942l-.264.91h2.961q.943,0,.726.91l-.273.91a1.182,1.182,0,0,1-1.245.91h-3.942l.264-.91h3.942l.273-.91h-2.961q-.943,0-.726-.91l.264-.91a1.182,1.182,0,0,1,1.245-.91h3.942Zm5.186-.91h4.932l-.264.91h-3.942l-.264.91H178.8l-.264.91h-3.942l-.528,1.9h-.943l1.32-4.76Zm6.6.91-.792,2.858h2.961l.792-2.858Zm.264-.91h2.961q.943,0,.726.91l-.792,2.858a1.182,1.182,0,0,1-1.245.91h-2.961q-.943,0-.726-.91l.792-2.858a1.182,1.182,0,0,1,1.245-.91Zm5.658.91-.264.91H189.6l.264-.91Zm.1,1.9-.462-.61-.7,2.512h-.943l1.32-4.76h3.942q.943,0,.726.91l-.264.91a1.172,1.172,0,0,1-1.235.91h-1l1.443,1.9h-1.339l-1.443-1.9Zm12.636,1.9h-4.932l1.32-4.76h.943l-1.056,3.8h3.942l-.264.91Zm3.291-4.76-1.32,4.76h-.943L202,90.6Zm.943,0h4.922l-.264.91h-3.942l-.264.91h3.942l-.264.91H204.1l-.528,1.9h-.943l1.32-4.76Zm10.844,0-.264.91h-4.932l.264-.91Zm-.519,1.9-.264.91h-4.932l.264-.91Zm-.528,1.9-.264.91h-4.932l.264-.91Z" transform="translate(1.988 -10.403)" fill="#232228"/>
    <path id="Path_51" data-name="Path 51" d="M228.185,50.83a2.909,2.909,0,0,1,1.339.337,2.458,2.458,0,0,1,1.018.974,2.658,2.658,0,0,1,.368,1.32,2.586,2.586,0,0,1-.358,1.31,2.476,2.476,0,0,1-1.009.974,2.82,2.82,0,0,1-2.716,0,2.485,2.485,0,0,1-1.009-.974,2.551,2.551,0,0,1,0-2.621,2.486,2.486,0,0,1,1.018-.974,2.909,2.909,0,0,1,1.339-.337Zm0,.437a2.4,2.4,0,0,0-1.122.282,2.078,2.078,0,0,0-.849.81,2.161,2.161,0,0,0,.839,2.995,2.334,2.334,0,0,0,2.263,0,2.087,2.087,0,0,0,.839-.81,2.128,2.128,0,0,0,0-2.184,2.059,2.059,0,0,0-.849-.81,2.4,2.4,0,0,0-1.113-.282Zm-1.2,3.641V52.086H228a2.545,2.545,0,0,1,.745.082.723.723,0,0,1,.368.273.711.711,0,0,1,.141.41.733.733,0,0,1-.226.537.96.96,0,0,1-.613.255.779.779,0,0,1,.245.146,3.176,3.176,0,0,1,.434.564l.358.555h-.575l-.264-.446a2.272,2.272,0,0,0-.5-.655.621.621,0,0,0-.377-.091h-.283v1.2Zm.471-1.593h.575a.971.971,0,0,0,.566-.118.377.377,0,0,0,.151-.309.374.374,0,0,0-.075-.228.423.423,0,0,0-.2-.146,1.551,1.551,0,0,0-.471-.046h-.538v.846Z" transform="translate(-2.91 -6.843)" fill="#232228"/>
    <path id="Path_52" data-name="Path 52" d="M41.084,46.45,28.684,91.4H24.45L36.86,46.45Z" transform="translate(8.55 -6.45)" fill="#232228"/>
    <path id="Path_53" data-name="Path 53" d="M70.982,46.52H37.61V50.6H70.982Z" transform="translate(7.8 -6.456)" fill="#232228" fill-rule="evenodd"/>
    <path id="Path_54" data-name="Path 54" d="M64.43,46.49H74.944l-1.122,4.087H64.43V46.49Z" transform="translate(6.271 -6.454)" fill="#232228" fill-rule="evenodd"/>
    <path id="Path_55" data-name="Path 55" d="M58.78,91.4H26.7v4.087H58.761V91.4Z" transform="translate(8.422 -10.486)" fill="#232228" fill-rule="evenodd"/>
    <path id="Path_56" data-name="Path 56" d="M52.39,91.37H62.9l-1.122,4.078H52.39V91.37Z" transform="translate(6.957 -10.484)" fill="#232228" fill-rule="evenodd"/>
    <path id="Path_57" data-name="Path 57" d="M64.729,85.68l-2.555,9.248H57.94L60.5,85.68Z" transform="translate(6.641 -9.973)" fill="#232228"/>
    <path id="Path_58" data-name="Path 58" d="M75.17,46.45,72.624,55.7H68.39l2.546-9.248Z" transform="translate(6.045 -6.45)" fill="#232228"/>
    <path id="Path_59" data-name="Path 59" d="M43.3,69.29l-.924,3.377H38.14l.924-3.377Z" transform="translate(7.769 -8.501)" fill="#232228"/>
    <path id="Path_60" data-name="Path 60" d="M91.339,60h5.29C80.73,75.109,85.313,70.7,75.11,80.425H69.82C85.577,65.461,81.079,69.73,91.339,60Z" transform="translate(5.963 -7.667)" fill="#232228"/>
    <path id="Path_61" data-name="Path 61" d="M93.77,59.96l5.658,20.416h4.225L98,59.96Z" transform="translate(4.598 -7.663)" fill="#232228"/>
    <path id="Path_62" data-name="Path 62" d="M69.82,82l9.4-3.95H89.8L88.7,82Z" transform="translate(5.963 -9.288)" fill="#232228" fill-rule="evenodd"/>
  </g>
</svg>
