<svg width="28" height="28" viewBox="0 0 28 28" fill="none" xmlns="http://www.w3.org/2000/svg">
<path d="M18.2627 22.4258C19.8008 22.4258 20.8467 21.9863 21.7959 20.958C21.8574 20.8877 21.9189 20.8086 21.9805 20.7383C22.499 20.1582 22.7539 19.5518 22.7539 18.9893C22.7539 18.3301 22.4023 17.7324 21.6201 17.1963L19.001 15.3682C18.1748 14.7969 17.2168 14.7529 16.4785 15.4912L15.8281 16.1416C15.5996 16.3701 15.3799 16.3877 15.1162 16.2031C14.6416 15.8867 13.7451 15.0957 13.1299 14.4805C12.5059 13.8564 11.873 13.1533 11.5303 12.6172C11.3457 12.3447 11.3633 12.1338 11.5918 11.9053L12.2422 11.2549C12.9805 10.5166 12.9365 9.55859 12.3564 8.73242L10.4932 6.06934C9.97461 5.31348 9.35059 4.96191 8.69141 4.95313C8.12891 4.94434 7.53125 5.19922 6.95117 5.70898C6.88086 5.77051 6.81055 5.83203 6.74023 5.89356C5.69434 6.85156 5.24609 7.87988 5.24609 9.47949C5.24609 12.0723 6.74902 15.1309 9.67578 18.04C12.585 20.9316 15.6084 22.4258 18.2627 22.4258ZM18.2627 20.958C16.0215 20.9932 13.2354 19.4023 10.792 16.9766C8.33105 14.5508 6.69629 11.6592 6.73145 9.41797C6.74902 8.47754 7.08301 7.65137 7.74219 7.07129C7.8125 7.01856 7.86523 6.97461 7.93555 6.92188C8.18164 6.71094 8.44531 6.59668 8.69141 6.59668C8.94629 6.59668 9.1748 6.70215 9.35059 6.96582L10.9941 9.43555C11.2051 9.73438 11.2139 10.0771 10.9062 10.376L10.2031 11.0703C9.53516 11.7207 9.59668 12.4854 10.0186 13.083C10.4932 13.7422 11.3809 14.7529 12.1279 15.4912C12.9277 16.2822 14.0176 17.2578 14.6504 17.7148C15.248 18.1367 16.0127 18.1982 16.6631 17.5303L17.3574 16.8271C17.6475 16.5195 17.9902 16.5283 18.2979 16.7305L20.7236 18.3477C20.9961 18.5234 21.0928 18.7432 21.0928 18.998C21.0928 19.2441 20.9785 19.5078 20.7676 19.7627C20.7148 19.8242 20.6709 19.877 20.6182 19.9473C20.0381 20.6152 19.2119 20.9492 18.2627 20.958Z" fill="#636366"/>
</svg>
