<svg width="30" height="30" viewBox="0 0 30 30" fill="none" xmlns="http://www.w3.org/2000/svg">
<circle cx="15" cy="15" r="15" fill="#F88B3B"/>
<path d="M11.4899 18.4579C13.9206 20.8969 16.8787 22.7756 19.2929 22.7756C20.3723 22.7756 21.3199 22.3965 22.0779 21.5561C22.5229 21.0617 22.7948 20.4932 22.7948 19.9246C22.7948 19.4879 22.6218 19.0594 22.2015 18.7628L19.6719 16.9666C19.2682 16.6864 18.9386 16.5546 18.642 16.5546C18.2547 16.5546 17.9086 16.7688 17.5296 17.1478L16.9363 17.7411C16.8375 17.8317 16.7221 17.8729 16.615 17.8729C16.4832 17.8729 16.3596 17.8235 16.2772 17.774C15.7581 17.4939 14.8682 16.7358 14.0442 15.9119C13.2202 15.0879 12.4539 14.2062 12.182 13.6789C12.1326 13.5883 12.0914 13.4729 12.0914 13.3411C12.0914 13.2422 12.1243 13.1268 12.215 13.028L12.8082 12.4265C13.179 12.0392 13.4015 11.7014 13.4015 11.3141C13.4015 11.0092 13.2697 10.6796 12.9895 10.2841L11.2015 7.77924C10.8966 7.35077 10.4681 7.16949 9.99847 7.16949C9.43817 7.16949 8.87787 7.41669 8.39172 7.88635C7.56775 8.66089 7.2052 9.62494 7.2052 10.6879C7.2052 13.1021 9.05914 16.0272 11.4899 18.4579Z" fill="white"/>
</svg>
